<svg id="Layer_1" enable-background="new 0 0 512 512" height="512" viewBox="0 0 512 512" width="512" xmlns="http://www.w3.org/2000/svg"><g><g><g><g id="XMLID_1271_"><g id="XMLID_1272_"><g id="XMLID_1273_"><g id="XMLID_1274_"><g id="XMLID_1275_"><g id="XMLID_1276_"><g id="XMLID_1277_"><g id="XMLID_1278_"><g id="XMLID_1279_"><g id="XMLID_1280_"><g id="XMLID_1281_"><g id="XMLID_1282_"><g id="XMLID_1283_"><g id="XMLID_1284_"><g id="XMLID_1300_"><circle cx="256" cy="256" fill="#46f7d5" r="256"/></g></g></g></g></g></g></g></g></g></g></g></g></g></g></g></g></g><path d="m55.389 392.816 97.589 97.589c31.524 13.876 66.369 21.595 103.022 21.595 141.385 0 256-114.615 256-256 0-32.927-6.222-64.399-17.546-93.313l-66.533-66.533z" fill="#2ad1b5"/><g><g><path d="m100.579 112.654h310.842v211.263h-310.842z" fill="#7343dd"/></g></g><g><path d="m256 112.65h155.42v211.27h-155.42z" fill="#552cb7"/></g><path d="m316.525 272.625c-3.491-19.486-15.131-36.556-31.995-46.924l-7.843-4.821h-41.374l-7.843 4.821c-16.864 10.368-28.504 27.438-31.995 46.924l-6.62 36.946h134.289z" fill="#ffc136"/><path d="m323.14 309.57h-67.14v-88.69h20.69l7.84 4.82c.96.59 1.91 1.21 2.84 1.85 15.32 10.48 25.86 26.7 29.15 45.07z" fill="#f4a300"/><g><path d="m427.921 340.417h-343.842v-244.263h343.842zm-310.842-33h277.842v-178.263h-277.842z" fill="#f4f2ef"/></g><g><g><path d="m256 96.15v33h138.92v178.27h-138.92v33h171.92v-244.27z" fill="#d8d5d2"/></g></g><path d="m55.389 338.757h401.223v54.06h-401.223z" fill="#655665"/><path d="m256 338.76h200.61v54.06h-200.61z" fill="#493e49"/><ellipse cx="256" cy="205.123" fill="#f4f2ef" rx="38.563" ry="38.563" transform="matrix(.924 -.383 .383 .924 -59.01 113.581)"/><path d="m294.56 205.12c0 8.37-2.67 16.11-7.19 22.43-6.99 9.77-18.44 16.14-31.37 16.14v-77.13c21.3 0 38.56 17.27 38.56 38.56z" fill="#d8d5d2"/></g></svg>